<svg id="visual" viewBox="0 0 960 540" width="960" height="540" xmlns="http://www.w3.org/2000/svg" xmlns:xlink="http://www.w3.org/1999/xlink" version="1.1"><rect x="0" y="0" width="960" height="540" fill="#001220"></rect><path d="M0 131L17.8 134.7C35.7 138.3 71.3 145.7 106.8 149.3C142.3 153 177.7 153 213.2 147.8C248.7 142.7 284.3 132.3 320 127.2C355.7 122 391.3 122 426.8 125.2C462.3 128.3 497.7 134.7 533.2 138.2C568.7 141.7 604.3 142.3 640 145.2C675.7 148 711.3 153 746.8 149.7C782.3 146.3 817.7 134.7 853.2 133.3C888.7 132 924.3 141 942.2 145.5L960 150L960 0L942.2 0C924.3 0 888.7 0 853.2 0C817.7 0 782.3 0 746.8 0C711.3 0 675.7 0 640 0C604.3 0 568.7 0 533.2 0C497.7 0 462.3 0 426.8 0C391.3 0 355.7 0 320 0C284.3 0 248.7 0 213.2 0C177.7 0 142.3 0 106.8 0C71.3 0 35.7 0 17.8 0L0 0Z" fill="#fa7268"></path><path d="M0 114L17.8 118.2C35.7 122.3 71.3 130.7 106.8 130.2C142.3 129.7 177.7 120.3 213.2 116.2C248.7 112 284.3 113 320 113C355.7 113 391.3 112 426.8 110C462.3 108 497.7 105 533.2 108.7C568.7 112.3 604.3 122.7 640 124.7C675.7 126.7 711.3 120.3 746.8 120.2C782.3 120 817.7 126 853.2 127.7C888.7 129.3 924.3 126.7 942.2 125.3L960 124L960 0L942.2 0C924.3 0 888.7 0 853.2 0C817.7 0 782.3 0 746.8 0C711.3 0 675.7 0 640 0C604.3 0 568.7 0 533.2 0C497.7 0 462.3 0 426.8 0C391.3 0 355.7 0 320 0C284.3 0 248.7 0 213.2 0C177.7 0 142.3 0 106.8 0C71.3 0 35.7 0 17.8 0L0 0Z" fill="#f36567"></path><path d="M0 120L17.8 118.8C35.7 117.7 71.3 115.3 106.8 110.7C142.3 106 177.7 99 213.2 96C248.7 93 284.3 94 320 94.5C355.7 95 391.3 95 426.8 98.7C462.3 102.3 497.7 109.7 533.2 111.5C568.7 113.3 604.3 109.7 640 107.7C675.7 105.7 711.3 105.3 746.8 106.7C782.3 108 817.7 111 853.2 112C888.7 113 924.3 112 942.2 111.5L960 111L960 0L942.2 0C924.3 0 888.7 0 853.2 0C817.7 0 782.3 0 746.8 0C711.3 0 675.7 0 640 0C604.3 0 568.7 0 533.2 0C497.7 0 462.3 0 426.8 0C391.3 0 355.7 0 320 0C284.3 0 248.7 0 213.2 0C177.7 0 142.3 0 106.8 0C71.3 0 35.7 0 17.8 0L0 0Z" fill="#eb5967"></path><path d="M0 70L17.8 73C35.7 76 71.3 82 106.8 86C142.3 90 177.7 92 213.2 88.7C248.7 85.3 284.3 76.7 320 77.7C355.7 78.7 391.3 89.3 426.8 93.8C462.3 98.3 497.7 96.7 533.2 95.8C568.7 95 604.3 95 640 91C675.7 87 711.3 79 746.8 78.3C782.3 77.7 817.7 84.3 853.2 82.5C888.7 80.7 924.3 70.3 942.2 65.2L960 60L960 0L942.2 0C924.3 0 888.7 0 853.2 0C817.7 0 782.3 0 746.8 0C711.3 0 675.7 0 640 0C604.3 0 568.7 0 533.2 0C497.7 0 462.3 0 426.8 0C391.3 0 355.7 0 320 0C284.3 0 248.7 0 213.2 0C177.7 0 142.3 0 106.8 0C71.3 0 35.7 0 17.8 0L0 0Z" fill="#e34c67"></path><path d="M0 75L17.8 69.3C35.7 63.7 71.3 52.3 106.8 50.7C142.3 49 177.7 57 213.2 57.5C248.7 58 284.3 51 320 53.2C355.7 55.3 391.3 66.7 426.8 69C462.3 71.3 497.7 64.7 533.2 64.2C568.7 63.7 604.3 69.3 640 67.2C675.7 65 711.3 55 746.8 55.2C782.3 55.3 817.7 65.7 853.2 68C888.7 70.3 924.3 64.7 942.2 61.8L960 59L960 0L942.2 0C924.3 0 888.7 0 853.2 0C817.7 0 782.3 0 746.8 0C711.3 0 675.7 0 640 0C604.3 0 568.7 0 533.2 0C497.7 0 462.3 0 426.8 0C391.3 0 355.7 0 320 0C284.3 0 248.7 0 213.2 0C177.7 0 142.3 0 106.8 0C71.3 0 35.7 0 17.8 0L0 0Z" fill="#da3f67"></path><path d="M0 20L17.8 23.3C35.7 26.7 71.3 33.3 106.8 34.7C142.3 36 177.7 32 213.2 34.7C248.7 37.3 284.3 46.7 320 46.3C355.7 46 391.3 36 426.8 32.7C462.3 29.3 497.7 32.7 533.2 36.2C568.7 39.7 604.3 43.3 640 41C675.7 38.7 711.3 30.3 746.8 26.7C782.3 23 817.7 24 853.2 27C888.7 30 924.3 35 942.2 37.5L960 40L960 0L942.2 0C924.3 0 888.7 0 853.2 0C817.7 0 782.3 0 746.8 0C711.3 0 675.7 0 640 0C604.3 0 568.7 0 533.2 0C497.7 0 462.3 0 426.8 0C391.3 0 355.7 0 320 0C284.3 0 248.7 0 213.2 0C177.7 0 142.3 0 106.8 0C71.3 0 35.7 0 17.8 0L0 0Z" fill="#d03267"></path><path d="M0 12L17.8 13.2C35.7 14.3 71.3 16.7 106.8 20.3C142.3 24 177.7 29 213.2 30.8C248.7 32.7 284.3 31.3 320 27.3C355.7 23.3 391.3 16.7 426.8 14.2C462.3 11.7 497.7 13.3 533.2 12C568.7 10.7 604.3 6.3 640 7.7C675.7 9 711.3 16 746.8 17.3C782.3 18.7 817.7 14.3 853.2 15C888.7 15.7 924.3 21.3 942.2 24.2L960 27L960 0L942.2 0C924.3 0 888.7 0 853.2 0C817.7 0 782.3 0 746.8 0C711.3 0 675.7 0 640 0C604.3 0 568.7 0 533.2 0C497.7 0 462.3 0 426.8 0C391.3 0 355.7 0 320 0C284.3 0 248.7 0 213.2 0C177.7 0 142.3 0 106.8 0C71.3 0 35.7 0 17.8 0L0 0Z" fill="#c62368"></path></svg>