<svg id="visual" viewBox="0 0 960 540" width="960" height="540" xmlns="http://www.w3.org/2000/svg" xmlns:xlink="http://www.w3.org/1999/xlink" version="1.1"><rect x="0" y="0" width="960" height="540" fill="#001220"></rect><path d="M0 346L22.8 350.8C45.7 355.7 91.3 365.3 137 372C182.7 378.7 228.3 382.3 274 378.2C319.7 374 365.3 362 411.2 356.7C457 351.3 503 352.7 548.8 358.5C594.7 364.3 640.3 374.7 686 375.2C731.7 375.7 777.3 366.3 823 361.5C868.7 356.7 914.3 356.3 937.2 356.2L960 356L960 541L937.2 541C914.3 541 868.7 541 823 541C777.3 541 731.7 541 686 541C640.3 541 594.7 541 548.8 541C503 541 457 541 411.2 541C365.3 541 319.7 541 274 541C228.3 541 182.7 541 137 541C91.3 541 45.7 541 22.8 541L0 541Z" fill="#fa7268"></path><path d="M0 389L22.8 389.3C45.7 389.7 91.3 390.3 137 390.7C182.7 391 228.3 391 274 390C319.7 389 365.3 387 411.2 385.8C457 384.7 503 384.3 548.8 388.2C594.7 392 640.3 400 686 405.3C731.7 410.7 777.3 413.3 823 409.3C868.7 405.3 914.3 394.7 937.2 389.3L960 384L960 541L937.2 541C914.3 541 868.7 541 823 541C777.3 541 731.7 541 686 541C640.3 541 594.7 541 548.8 541C503 541 457 541 411.2 541C365.3 541 319.7 541 274 541C228.3 541 182.7 541 137 541C91.3 541 45.7 541 22.8 541L0 541Z" fill="#ef5f67"></path><path d="M0 422L22.8 422.5C45.7 423 91.3 424 137 423C182.7 422 228.3 419 274 419.7C319.7 420.3 365.3 424.7 411.2 428.7C457 432.7 503 436.3 548.8 434.8C594.7 433.3 640.3 426.7 686 427.7C731.7 428.7 777.3 437.3 823 439.3C868.7 441.3 914.3 436.7 937.2 434.3L960 432L960 541L937.2 541C914.3 541 868.7 541 823 541C777.3 541 731.7 541 686 541C640.3 541 594.7 541 548.8 541C503 541 457 541 411.2 541C365.3 541 319.7 541 274 541C228.3 541 182.7 541 137 541C91.3 541 45.7 541 22.8 541L0 541Z" fill="#e34c67"></path><path d="M0 456L22.8 456.5C45.7 457 91.3 458 137 460.2C182.7 462.3 228.3 465.7 274 465.2C319.7 464.7 365.3 460.3 411.2 461.2C457 462 503 468 548.8 470.2C594.7 472.3 640.3 470.7 686 469.2C731.7 467.7 777.3 466.3 823 468.3C868.7 470.3 914.3 475.7 937.2 478.3L960 481L960 541L937.2 541C914.3 541 868.7 541 823 541C777.3 541 731.7 541 686 541C640.3 541 594.7 541 548.8 541C503 541 457 541 411.2 541C365.3 541 319.7 541 274 541C228.3 541 182.7 541 137 541C91.3 541 45.7 541 22.8 541L0 541Z" fill="#d53867"></path><path d="M0 490L22.8 489.7C45.7 489.3 91.3 488.7 137 488C182.7 487.3 228.3 486.7 274 488.5C319.7 490.3 365.3 494.7 411.2 498.3C457 502 503 505 548.8 507.2C594.7 509.3 640.3 510.7 686 508.5C731.7 506.3 777.3 500.7 823 498.7C868.7 496.7 914.3 498.3 937.2 499.2L960 500L960 541L937.2 541C914.3 541 868.7 541 823 541C777.3 541 731.7 541 686 541C640.3 541 594.7 541 548.8 541C503 541 457 541 411.2 541C365.3 541 319.7 541 274 541C228.3 541 182.7 541 137 541C91.3 541 45.7 541 22.8 541L0 541Z" fill="#c62368"></path></svg>